0
SECTION
2
HEADER
9
$INSUNITS
70
6
0
ENDSEC
0
SECTION
2
ENTITIES
0
LINE
8
HALLS
10
10
20
10.0
30
0
11
30
21
10.0
31
0
0
LINE
8
HALLS
10
30
20
10.0
30
0
11
30
21
33.0
31
0
0
LINE
8
HALLS
10
30
20
33.0
30
0
11
10
21
33.0
31
0
0
LINE
8
HALLS
10
10
20
33.0
30
0
11
10
21
10.0
31
0
0
LINE
8
HALLS
10
38
20
10.0
30
0
11
58
21
10.0
31
0
0
LINE
8
HALLS
10
58
20
10.0
30
0
11
58
21
33.0
31
0
0
LINE
8
HALLS
10
58
20
33.0
30
0
11
38
21
33.0
31
0
0
LINE
8
HALLS
10
38
20
33.0
30
0
11
38
21
10.0
31
0
0
LINE
8
HALLS
10
10
20
41.0
30
0
11
30
21
41.0
31
0
0
LINE
8
HALLS
10
30
20
41.0
30
0
11
30
21
64.0
31
0
0
LINE
8
HALLS
10
30
20
64.0
30
0
11
10
21
64.0
31
0
0
LINE
8
HALLS
10
10
20
64.0
30
0
11
10
21
41.0
31
0
0
LINE
8
HALLS
10
38
20
41.0
30
0
11
58
21
41.0
31
0
0
LINE
8
HALLS
10
58
20
41.0
30
0
11
58
21
64.0
31
0
0
LINE
8
HALLS
10
58
20
64.0
30
0
11
38
21
64.0
31
0
0
LINE
8
HALLS
10
38
20
64.0
30
0
11
38
21
41.0
31
0
0
LINE
8
RACKS
10
14.0
20
14.0
30
0
11
14.6
21
14.0
31
0
0
LINE
8
RACKS
10
14.6
20
14.0
30
0
11
14.6
21
15.2
31
0
0
LINE
8
RACKS
10
14.6
20
15.2
30
0
11
14.0
21
15.2
31
0
0
LINE
8
RACKS
10
14.0
20
15.2
30
0
11
14.0
21
14.0
31
0
0
LINE
8
RACKS
10
15.2
20
14.0
30
0
11
15.799999999999999
21
14.0
31
0
0
LINE
8
RACKS
10
15.799999999999999
20
14.0
30
0
11
15.799999999999999
21
15.2
31
0
0
LINE
8
RACKS
10
15.799999999999999
20
15.2
30
0
11
15.2
21
15.2
31
0
0
LINE
8
RACKS
10
15.2
20
15.2
30
0
11
15.2
21
14.0
31
0
0
LINE
8
RACKS
10
16.4
20
14.0
30
0
11
17.0
21
14.0
31
0
0
LINE
8
RACKS
10
17.0
20
14.0
30
0
11
17.0
21
15.2
31
0
0
LINE
8
RACKS
10
17.0
20
15.2
30
0
11
16.4
21
15.2
31
0
0
LINE
8
RACKS
10
16.4
20
15.2
30
0
11
16.4
21
14.0
31
0
0
LINE
8
RACKS
10
17.6
20
14.0
30
0
11
18.200000000000003
21
14.0
31
0
0
LINE
8
RACKS
10
18.200000000000003
20
14.0
30
0
11
18.200000000000003
21
15.2
31
0
0
LINE
8
RACKS
10
18.200000000000003
20
15.2
30
0
11
17.6
21
15.2
31
0
0
LINE
8
RACKS
10
17.6
20
15.2
30
0
11
17.6
21
14.0
31
0
0
LINE
8
RACKS
10
18.8
20
14.0
30
0
11
19.400000000000002
21
14.0
31
0
0
LINE
8
RACKS
10
19.400000000000002
20
14.0
30
0
11
19.400000000000002
21
15.2
31
0
0
LINE
8
RACKS
10
19.400000000000002
20
15.2
30
0
11
18.8
21
15.2
31
0
0
LINE
8
RACKS
10
18.8
20
15.2
30
0
11
18.8
21
14.0
31
0
0
LINE
8
RACKS
10
20.0
20
14.0
30
0
11
20.6
21
14.0
31
0
0
LINE
8
RACKS
10
20.6
20
14.0
30
0
11
20.6
21
15.2
31
0
0
LINE
8
RACKS
10
20.6
20
15.2
30
0
11
20.0
21
15.2
31
0
0
LINE
8
RACKS
10
20.0
20
15.2
30
0
11
20.0
21
14.0
31
0
0
LINE
8
RACKS
10
21.2
20
14.0
30
0
11
21.8
21
14.0
31
0
0
LINE
8
RACKS
10
21.8
20
14.0
30
0
11
21.8
21
15.2
31
0
0
LINE
8
RACKS
10
21.8
20
15.2
30
0
11
21.2
21
15.2
31
0
0
LINE
8
RACKS
10
21.2
20
15.2
30
0
11
21.2
21
14.0
31
0
0
LINE
8
RACKS
10
22.4
20
14.0
30
0
11
23.0
21
14.0
31
0
0
LINE
8
RACKS
10
23.0
20
14.0
30
0
11
23.0
21
15.2
31
0
0
LINE
8
RACKS
10
23.0
20
15.2
30
0
11
22.4
21
15.2
31
0
0
LINE
8
RACKS
10
22.4
20
15.2
30
0
11
22.4
21
14.0
31
0
0
LINE
8
RACKS
10
23.6
20
14.0
30
0
11
24.200000000000003
21
14.0
31
0
0
LINE
8
RACKS
10
24.200000000000003
20
14.0
30
0
11
24.200000000000003
21
15.2
31
0
0
LINE
8
RACKS
10
24.200000000000003
20
15.2
30
0
11
23.6
21
15.2
31
0
0
LINE
8
RACKS
10
23.6
20
15.2
30
0
11
23.6
21
14.0
31
0
0
LINE
8
RACKS
10
24.799999999999997
20
14.0
30
0
11
25.4
21
14.0
31
0
0
LINE
8
RACKS
10
25.4
20
14.0
30
0
11
25.4
21
15.2
31
0
0
LINE
8
RACKS
10
25.4
20
15.2
30
0
11
24.799999999999997
21
15.2
31
0
0
LINE
8
RACKS
10
24.799999999999997
20
15.2
30
0
11
24.799999999999997
21
14.0
31
0
0
LINE
8
RACKS
10
14.0
20
17.0
30
0
11
14.6
21
17.0
31
0
0
LINE
8
RACKS
10
14.6
20
17.0
30
0
11
14.6
21
18.2
31
0
0
LINE
8
RACKS
10
14.6
20
18.2
30
0
11
14.0
21
18.2
31
0
0
LINE
8
RACKS
10
14.0
20
18.2
30
0
11
14.0
21
17.0
31
0
0
LINE
8
RACKS
10
15.2
20
17.0
30
0
11
15.799999999999999
21
17.0
31
0
0
LINE
8
RACKS
10
15.799999999999999
20
17.0
30
0
11
15.799999999999999
21
18.2
31
0
0
LINE
8
RACKS
10
15.799999999999999
20
18.2
30
0
11
15.2
21
18.2
31
0
0
LINE
8
RACKS
10
15.2
20
18.2
30
0
11
15.2
21
17.0
31
0
0
LINE
8
RACKS
10
16.4
20
17.0
30
0
11
17.0
21
17.0
31
0
0
LINE
8
RACKS
10
17.0
20
17.0
30
0
11
17.0
21
18.2
31
0
0
LINE
8
RACKS
10
17.0
20
18.2
30
0
11
16.4
21
18.2
31
0
0
LINE
8
RACKS
10
16.4
20
18.2
30
0
11
16.4
21
17.0
31
0
0
LINE
8
RACKS
10
17.6
20
17.0
30
0
11
18.200000000000003
21
17.0
31
0
0
LINE
8
RACKS
10
18.200000000000003
20
17.0
30
0
11
18.200000000000003
21
18.2
31
0
0
LINE
8
RACKS
10
18.200000000000003
20
18.2
30
0
11
17.6
21
18.2
31
0
0
LINE
8
RACKS
10
17.6
20
18.2
30
0
11
17.6
21
17.0
31
0
0
LINE
8
RACKS
10
18.8
20
17.0
30
0
11
19.400000000000002
21
17.0
31
0
0
LINE
8
RACKS
10
19.400000000000002
20
17.0
30
0
11
19.400000000000002
21
18.2
31
0
0
LINE
8
RACKS
10
19.400000000000002
20
18.2
30
0
11
18.8
21
18.2
31
0
0
LINE
8
RACKS
10
18.8
20
18.2
30
0
11
18.8
21
17.0
31
0
0
LINE
8
RACKS
10
20.0
20
17.0
30
0
11
20.6
21
17.0
31
0
0
LINE
8
RACKS
10
20.6
20
17.0
30
0
11
20.6
21
18.2
31
0
0
LINE
8
RACKS
10
20.6
20
18.2
30
0
11
20.0
21
18.2
31
0
0
LINE
8
RACKS
10
20.0
20
18.2
30
0
11
20.0
21
17.0
31
0
0
LINE
8
RACKS
10
21.2
20
17.0
30
0
11
21.8
21
17.0
31
0
0
LINE
8
RACKS
10
21.8
20
17.0
30
0
11
21.8
21
18.2
31
0
0
LINE
8
RACKS
10
21.8
20
18.2
30
0
11
21.2
21
18.2
31
0
0
LINE
8
RACKS
10
21.2
20
18.2
30
0
11
21.2
21
17.0
31
0
0
LINE
8
RACKS
10
22.4
20
17.0
30
0
11
23.0
21
17.0
31
0
0
LINE
8
RACKS
10
23.0
20
17.0
30
0
11
23.0
21
18.2
31
0
0
LINE
8
RACKS
10
23.0
20
18.2
30
0
11
22.4
21
18.2
31
0
0
LINE
8
RACKS
10
22.4
20
18.2
30
0
11
22.4
21
17.0
31
0
0
LINE
8
RACKS
10
23.6
20
17.0
30
0
11
24.200000000000003
21
17.0
31
0
0
LINE
8
RACKS
10
24.200000000000003
20
17.0
30
0
11
24.200000000000003
21
18.2
31
0
0
LINE
8
RACKS
10
24.200000000000003
20
18.2
30
0
11
23.6
21
18.2
31
0
0
LINE
8
RACKS
10
23.6
20
18.2
30
0
11
23.6
21
17.0
31
0
0
LINE
8
RACKS
10
24.799999999999997
20
17.0
30
0
11
25.4
21
17.0
31
0
0
LINE
8
RACKS
10
25.4
20
17.0
30
0
11
25.4
21
18.2
31
0
0
LINE
8
RACKS
10
25.4
20
18.2
30
0
11
24.799999999999997
21
18.2
31
0
0
LINE
8
RACKS
10
24.799999999999997
20
18.2
30
0
11
24.799999999999997
21
17.0
31
0
0
LINE
8
RACKS
10
14.0
20
20.0
30
0
11
14.6
21
20.0
31
0
0
LINE
8
RACKS
10
14.6
20
20.0
30
0
11
14.6
21
21.2
31
0
0
LINE
8
RACKS
10
14.6
20
21.2
30
0
11
14.0
21
21.2
31
0
0
LINE
8
RACKS
10
14.0
20
21.2
30
0
11
14.0
21
20.0
31
0
0
LINE
8
RACKS
10
15.2
20
20.0
30
0
11
15.799999999999999
21
20.0
31
0
0
LINE
8
RACKS
10
15.799999999999999
20
20.0
30
0
11
15.799999999999999
21
21.2
31
0
0
LINE
8
RACKS
10
15.799999999999999
20
21.2
30
0
11
15.2
21
21.2
31
0
0
LINE
8
RACKS
10
15.2
20
21.2
30
0
11
15.2
21
20.0
31
0
0
LINE
8
RACKS
10
16.4
20
20.0
30
0
11
17.0
21
20.0
31
0
0
LINE
8
RACKS
10
17.0
20
20.0
30
0
11
17.0
21
21.2
31
0
0
LINE
8
RACKS
10
17.0
20
21.2
30
0
11
16.4
21
21.2
31
0
0
LINE
8
RACKS
10
16.4
20
21.2
30
0
11
16.4
21
20.0
31
0
0
LINE
8
RACKS
10
17.6
20
20.0
30
0
11
18.200000000000003
21
20.0
31
0
0
LINE
8
RACKS
10
18.200000000000003
20
20.0
30
0
11
18.200000000000003
21
21.2
31
0
0
LINE
8
RACKS
10
18.200000000000003
20
21.2
30
0
11
17.6
21
21.2
31
0
0
LINE
8
RACKS
10
17.6
20
21.2
30
0
11
17.6
21
20.0
31
0
0
LINE
8
RACKS
10
18.8
20
20.0
30
0
11
19.400000000000002
21
20.0
31
0
0
LINE
8
RACKS
10
19.400000000000002
20
20.0
30
0
11
19.400000000000002
21
21.2
31
0
0
LINE
8
RACKS
10
19.400000000000002
20
21.2
30
0
11
18.8
21
21.2
31
0
0
LINE
8
RACKS
10
18.8
20
21.2
30
0
11
18.8
21
20.0
31
0
0
LINE
8
RACKS
10
20.0
20
20.0
30
0
11
20.6
21
20.0
31
0
0
LINE
8
RACKS
10
20.6
20
20.0
30
0
11
20.6
21
21.2
31
0
0
LINE
8
RACKS
10
20.6
20
21.2
30
0
11
20.0
21
21.2
31
0
0
LINE
8
RACKS
10
20.0
20
21.2
30
0
11
20.0
21
20.0
31
0
0
LINE
8
RACKS
10
21.2
20
20.0
30
0
11
21.8
21
20.0
31
0
0
LINE
8
RACKS
10
21.8
20
20.0
30
0
11
21.8
21
21.2
31
0
0
LINE
8
RACKS
10
21.8
20
21.2
30
0
11
21.2
21
21.2
31
0
0
LINE
8
RACKS
10
21.2
20
21.2
30
0
11
21.2
21
20.0
31
0
0
LINE
8
RACKS
10
22.4
20
20.0
30
0
11
23.0
21
20.0
31
0
0
LINE
8
RACKS
10
23.0
20
20.0
30
0
11
23.0
21
21.2
31
0
0
LINE
8
RACKS
10
23.0
20
21.2
30
0
11
22.4
21
21.2
31
0
0
LINE
8
RACKS
10
22.4
20
21.2
30
0
11
22.4
21
20.0
31
0
0
LINE
8
RACKS
10
23.6
20
20.0
30
0
11
24.200000000000003
21
20.0
31
0
0
LINE
8
RACKS
10
24.200000000000003
20
20.0
30
0
11
24.200000000000003
21
21.2
31
0
0
LINE
8
RACKS
10
24.200000000000003
20
21.2
30
0
11
23.6
21
21.2
31
0
0
LINE
8
RACKS
10
23.6
20
21.2
30
0
11
23.6
21
20.0
31
0
0
LINE
8
RACKS
10
24.799999999999997
20
20.0
30
0
11
25.4
21
20.0
31
0
0
LINE
8
RACKS
10
25.4
20
20.0
30
0
11
25.4
21
21.2
31
0
0
LINE
8
RACKS
10
25.4
20
21.2
30
0
11
24.799999999999997
21
21.2
31
0
0
LINE
8
RACKS
10
24.799999999999997
20
21.2
30
0
11
24.799999999999997
21
20.0
31
0
0
LINE
8
RACKS
10
14.0
20
23.0
30
0
11
14.6
21
23.0
31
0
0
LINE
8
RACKS
10
14.6
20
23.0
30
0
11
14.6
21
24.2
31
0
0
LINE
8
RACKS
10
14.6
20
24.2
30
0
11
14.0
21
24.2
31
0
0
LINE
8
RACKS
10
14.0
20
24.2
30
0
11
14.0
21
23.0
31
0
0
LINE
8
RACKS
10
15.2
20
23.0
30
0
11
15.799999999999999
21
23.0
31
0
0
LINE
8
RACKS
10
15.799999999999999
20
23.0
30
0
11
15.799999999999999
21
24.2
31
0
0
LINE
8
RACKS
10
15.799999999999999
20
24.2
30
0
11
15.2
21
24.2
31
0
0
LINE
8
RACKS
10
15.2
20
24.2
30
0
11
15.2
21
23.0
31
0
0
LINE
8
RACKS
10
16.4
20
23.0
30
0
11
17.0
21
23.0
31
0
0
LINE
8
RACKS
10
17.0
20
23.0
30
0
11
17.0
21
24.2
31
0
0
LINE
8
RACKS
10
17.0
20
24.2
30
0
11
16.4
21
24.2
31
0
0
LINE
8
RACKS
10
16.4
20
24.2
30
0
11
16.4
21
23.0
31
0
0
LINE
8
RACKS
10
17.6
20
23.0
30
0
11
18.200000000000003
21
23.0
31
0
0
LINE
8
RACKS
10
18.200000000000003
20
23.0
30
0
11
18.200000000000003
21
24.2
31
0
0
LINE
8
RACKS
10
18.200000000000003
20
24.2
30
0
11
17.6
21
24.2
31
0
0
LINE
8
RACKS
10
17.6
20
24.2
30
0
11
17.6
21
23.0
31
0
0
LINE
8
RACKS
10
18.8
20
23.0
30
0
11
19.400000000000002
21
23.0
31
0
0
LINE
8
RACKS
10
19.400000000000002
20
23.0
30
0
11
19.400000000000002
21
24.2
31
0
0
LINE
8
RACKS
10
19.400000000000002
20
24.2
30
0
11
18.8
21
24.2
31
0
0
LINE
8
RACKS
10
18.8
20
24.2
30
0
11
18.8
21
23.0
31
0
0
LINE
8
RACKS
10
20.0
20
23.0
30
0
11
20.6
21
23.0
31
0
0
LINE
8
RACKS
10
20.6
20
23.0
30
0
11
20.6
21
24.2
31
0
0
LINE
8
RACKS
10
20.6
20
24.2
30
0
11
20.0
21
24.2
31
0
0
LINE
8
RACKS
10
20.0
20
24.2
30
0
11
20.0
21
23.0
31
0
0
LINE
8
RACKS
10
21.2
20
23.0
30
0
11
21.8
21
23.0
31
0
0
LINE
8
RACKS
10
21.8
20
23.0
30
0
11
21.8
21
24.2
31
0
0
LINE
8
RACKS
10
21.8
20
24.2
30
0
11
21.2
21
24.2
31
0
0
LINE
8
RACKS
10
21.2
20
24.2
30
0
11
21.2
21
23.0
31
0
0
LINE
8
RACKS
10
22.4
20
23.0
30
0
11
23.0
21
23.0
31
0
0
LINE
8
RACKS
10
23.0
20
23.0
30
0
11
23.0
21
24.2
31
0
0
LINE
8
RACKS
10
23.0
20
24.2
30
0
11
22.4
21
24.2
31
0
0
LINE
8
RACKS
10
22.4
20
24.2
30
0
11
22.4
21
23.0
31
0
0
LINE
8
RACKS
10
23.6
20
23.0
30
0
11
24.200000000000003
21
23.0
31
0
0
LINE
8
RACKS
10
24.200000000000003
20
23.0
30
0
11
24.200000000000003
21
24.2
31
0
0
LINE
8
RACKS
10
24.200000000000003
20
24.2
30
0
11
23.6
21
24.2
31
0
0
LINE
8
RACKS
10
23.6
20
24.2
30
0
11
23.6
21
23.0
31
0
0
LINE
8
RACKS
10
24.799999999999997
20
23.0
30
0
11
25.4
21
23.0
31
0
0
LINE
8
RACKS
10
25.4
20
23.0
30
0
11
25.4
21
24.2
31
0
0
LINE
8
RACKS
10
25.4
20
24.2
30
0
11
24.799999999999997
21
24.2
31
0
0
LINE
8
RACKS
10
24.799999999999997
20
24.2
30
0
11
24.799999999999997
21
23.0
31
0
0
LINE
8
RACKS
10
14.0
20
26.0
30
0
11
14.6
21
26.0
31
0
0
LINE
8
RACKS
10
14.6
20
26.0
30
0
11
14.6
21
27.2
31
0
0
LINE
8
RACKS
10
14.6
20
27.2
30
0
11
14.0
21
27.2
31
0
0
LINE
8
RACKS
10
14.0
20
27.2
30
0
11
14.0
21
26.0
31
0
0
LINE
8
RACKS
10
15.2
20
26.0
30
0
11
15.799999999999999
21
26.0
31
0
0
LINE
8
RACKS
10
15.799999999999999
20
26.0
30
0
11
15.799999999999999
21
27.2
31
0
0
LINE
8
RACKS
10
15.799999999999999
20
27.2
30
0
11
15.2
21
27.2
31
0
0
LINE
8
RACKS
10
15.2
20
27.2
30
0
11
15.2
21
26.0
31
0
0
LINE
8
RACKS
10
16.4
20
26.0
30
0
11
17.0
21
26.0
31
0
0
LINE
8
RACKS
10
17.0
20
26.0
30
0
11
17.0
21
27.2
31
0
0
LINE
8
RACKS
10
17.0
20
27.2
30
0
11
16.4
21
27.2
31
0
0
LINE
8
RACKS
10
16.4
20
27.2
30
0
11
16.4
21
26.0
31
0
0
LINE
8
RACKS
10
17.6
20
26.0
30
0
11
18.200000000000003
21
26.0
31
0
0
LINE
8
RACKS
10
18.200000000000003
20
26.0
30
0
11
18.200000000000003
21
27.2
31
0
0
LINE
8
RACKS
10
18.200000000000003
20
27.2
30
0
11
17.6
21
27.2
31
0
0
LINE
8
RACKS
10
17.6
20
27.2
30
0
11
17.6
21
26.0
31
0
0
LINE
8
RACKS
10
18.8
20
26.0
30
0
11
19.400000000000002
21
26.0
31
0
0
LINE
8
RACKS
10
19.400000000000002
20
26.0
30
0
11
19.400000000000002
21
27.2
31
0
0
LINE
8
RACKS
10
19.400000000000002
20
27.2
30
0
11
18.8
21
27.2
31
0
0
LINE
8
RACKS
10
18.8
20
27.2
30
0
11
18.8
21
26.0
31
0
0
LINE
8
RACKS
10
20.0
20
26.0
30
0
11
20.6
21
26.0
31
0
0
LINE
8
RACKS
10
20.6
20
26.0
30
0
11
20.6
21
27.2
31
0
0
LINE
8
RACKS
10
20.6
20
27.2
30
0
11
20.0
21
27.2
31
0
0
LINE
8
RACKS
10
20.0
20
27.2
30
0
11
20.0
21
26.0
31
0
0
LINE
8
RACKS
10
21.2
20
26.0
30
0
11
21.8
21
26.0
31
0
0
LINE
8
RACKS
10
21.8
20
26.0
30
0
11
21.8
21
27.2
31
0
0
LINE
8
RACKS
10
21.8
20
27.2
30
0
11
21.2
21
27.2
31
0
0
LINE
8
RACKS
10
21.2
20
27.2
30
0
11
21.2
21
26.0
31
0
0
LINE
8
RACKS
10
22.4
20
26.0
30
0
11
23.0
21
26.0
31
0
0
LINE
8
RACKS
10
23.0
20
26.0
30
0
11
23.0
21
27.2
31
0
0
LINE
8
RACKS
10
23.0
20
27.2
30
0
11
22.4
21
27.2
31
0
0
LINE
8
RACKS
10
22.4
20
27.2
30
0
11
22.4
21
26.0
31
0
0
LINE
8
RACKS
10
23.6
20
26.0
30
0
11
24.200000000000003
21
26.0
31
0
0
LINE
8
RACKS
10
24.200000000000003
20
26.0
30
0
11
24.200000000000003
21
27.2
31
0
0
LINE
8
RACKS
10
24.200000000000003
20
27.2
30
0
11
23.6
21
27.2
31
0
0
LINE
8
RACKS
10
23.6
20
27.2
30
0
11
23.6
21
26.0
31
0
0
LINE
8
RACKS
10
24.799999999999997
20
26.0
30
0
11
25.4
21
26.0
31
0
0
LINE
8
RACKS
10
25.4
20
26.0
30
0
11
25.4
21
27.2
31
0
0
LINE
8
RACKS
10
25.4
20
27.2
30
0
11
24.799999999999997
21
27.2
31
0
0
LINE
8
RACKS
10
24.799999999999997
20
27.2
30
0
11
24.799999999999997
21
26.0
31
0
0
LINE
8
RACKS
10
42.0
20
14.0
30
0
11
42.6
21
14.0
31
0
0
LINE
8
RACKS
10
42.6
20
14.0
30
0
11
42.6
21
15.2
31
0
0
LINE
8
RACKS
10
42.6
20
15.2
30
0
11
42.0
21
15.2
31
0
0
LINE
8
RACKS
10
42.0
20
15.2
30
0
11
42.0
21
14.0
31
0
0
LINE
8
RACKS
10
43.2
20
14.0
30
0
11
43.800000000000004
21
14.0
31
0
0
LINE
8
RACKS
10
43.800000000000004
20
14.0
30
0
11
43.800000000000004
21
15.2
31
0
0
LINE
8
RACKS
10
43.800000000000004
20
15.2
30
0
11
43.2
21
15.2
31
0
0
LINE
8
RACKS
10
43.2
20
15.2
30
0
11
43.2
21
14.0
31
0
0
LINE
8
RACKS
10
44.4
20
14.0
30
0
11
45.0
21
14.0
31
0
0
LINE
8
RACKS
10
45.0
20
14.0
30
0
11
45.0
21
15.2
31
0
0
LINE
8
RACKS
10
45.0
20
15.2
30
0
11
44.4
21
15.2
31
0
0
LINE
8
RACKS
10
44.4
20
15.2
30
0
11
44.4
21
14.0
31
0
0
LINE
8
RACKS
10
45.6
20
14.0
30
0
11
46.2
21
14.0
31
0
0
LINE
8
RACKS
10
46.2
20
14.0
30
0
11
46.2
21
15.2
31
0
0
LINE
8
RACKS
10
46.2
20
15.2
30
0
11
45.6
21
15.2
31
0
0
LINE
8
RACKS
10
45.6
20
15.2
30
0
11
45.6
21
14.0
31
0
0
LINE
8
RACKS
10
46.8
20
14.0
30
0
11
47.4
21
14.0
31
0
0
LINE
8
RACKS
10
47.4
20
14.0
30
0
11
47.4
21
15.2
31
0
0
LINE
8
RACKS
10
47.4
20
15.2
30
0
11
46.8
21
15.2
31
0
0
LINE
8
RACKS
10
46.8
20
15.2
30
0
11
46.8
21
14.0
31
0
0
LINE
8
RACKS
10
48.0
20
14.0
30
0
11
48.6
21
14.0
31
0
0
LINE
8
RACKS
10
48.6
20
14.0
30
0
11
48.6
21
15.2
31
0
0
LINE
8
RACKS
10
48.6
20
15.2
30
0
11
48.0
21
15.2
31
0
0
LINE
8
RACKS
10
48.0
20
15.2
30
0
11
48.0
21
14.0
31
0
0
LINE
8
RACKS
10
49.2
20
14.0
30
0
11
49.800000000000004
21
14.0
31
0
0
LINE
8
RACKS
10
49.800000000000004
20
14.0
30
0
11
49.800000000000004
21
15.2
31
0
0
LINE
8
RACKS
10
49.800000000000004
20
15.2
30
0
11
49.2
21
15.2
31
0
0
LINE
8
RACKS
10
49.2
20
15.2
30
0
11
49.2
21
14.0
31
0
0
LINE
8
RACKS
10
50.4
20
14.0
30
0
11
51.0
21
14.0
31
0
0
LINE
8
RACKS
10
51.0
20
14.0
30
0
11
51.0
21
15.2
31
0
0
LINE
8
RACKS
10
51.0
20
15.2
30
0
11
50.4
21
15.2
31
0
0
LINE
8
RACKS
10
50.4
20
15.2
30
0
11
50.4
21
14.0
31
0
0
LINE
8
RACKS
10
51.6
20
14.0
30
0
11
52.2
21
14.0
31
0
0
LINE
8
RACKS
10
52.2
20
14.0
30
0
11
52.2
21
15.2
31
0
0
LINE
8
RACKS
10
52.2
20
15.2
30
0
11
51.6
21
15.2
31
0
0
LINE
8
RACKS
10
51.6
20
15.2
30
0
11
51.6
21
14.0
31
0
0
LINE
8
RACKS
10
52.8
20
14.0
30
0
11
53.4
21
14.0
31
0
0
LINE
8
RACKS
10
53.4
20
14.0
30
0
11
53.4
21
15.2
31
0
0
LINE
8
RACKS
10
53.4
20
15.2
30
0
11
52.8
21
15.2
31
0
0
LINE
8
RACKS
10
52.8
20
15.2
30
0
11
52.8
21
14.0
31
0
0
LINE
8
RACKS
10
42.0
20
17.0
30
0
11
42.6
21
17.0
31
0
0
LINE
8
RACKS
10
42.6
20
17.0
30
0
11
42.6
21
18.2
31
0
0
LINE
8
RACKS
10
42.6
20
18.2
30
0
11
42.0
21
18.2
31
0
0
LINE
8
RACKS
10
42.0
20
18.2
30
0
11
42.0
21
17.0
31
0
0
LINE
8
RACKS
10
43.2
20
17.0
30
0
11
43.800000000000004
21
17.0
31
0
0
LINE
8
RACKS
10
43.800000000000004
20
17.0
30
0
11
43.800000000000004
21
18.2
31
0
0
LINE
8
RACKS
10
43.800000000000004
20
18.2
30
0
11
43.2
21
18.2
31
0
0
LINE
8
RACKS
10
43.2
20
18.2
30
0
11
43.2
21
17.0
31
0
0
LINE
8
RACKS
10
44.4
20
17.0
30
0
11
45.0
21
17.0
31
0
0
LINE
8
RACKS
10
45.0
20
17.0
30
0
11
45.0
21
18.2
31
0
0
LINE
8
RACKS
10
45.0
20
18.2
30
0
11
44.4
21
18.2
31
0
0
LINE
8
RACKS
10
44.4
20
18.2
30
0
11
44.4
21
17.0
31
0
0
LINE
8
RACKS
10
45.6
20
17.0
30
0
11
46.2
21
17.0
31
0
0
LINE
8
RACKS
10
46.2
20
17.0
30
0
11
46.2
21
18.2
31
0
0
LINE
8
RACKS
10
46.2
20
18.2
30
0
11
45.6
21
18.2
31
0
0
LINE
8
RACKS
10
45.6
20
18.2
30
0
11
45.6
21
17.0
31
0
0
LINE
8
RACKS
10
46.8
20
17.0
30
0
11
47.4
21
17.0
31
0
0
LINE
8
RACKS
10
47.4
20
17.0
30
0
11
47.4
21
18.2
31
0
0
LINE
8
RACKS
10
47.4
20
18.2
30
0
11
46.8
21
18.2
31
0
0
LINE
8
RACKS
10
46.8
20
18.2
30
0
11
46.8
21
17.0
31
0
0
LINE
8
RACKS
10
48.0
20
17.0
30
0
11
48.6
21
17.0
31
0
0
LINE
8
RACKS
10
48.6
20
17.0
30
0
11
48.6
21
18.2
31
0
0
LINE
8
RACKS
10
48.6
20
18.2
30
0
11
48.0
21
18.2
31
0
0
LINE
8
RACKS
10
48.0
20
18.2
30
0
11
48.0
21
17.0
31
0
0
LINE
8
RACKS
10
49.2
20
17.0
30
0
11
49.800000000000004
21
17.0
31
0
0
LINE
8
RACKS
10
49.800000000000004
20
17.0
30
0
11
49.800000000000004
21
18.2
31
0
0
LINE
8
RACKS
10
49.800000000000004
20
18.2
30
0
11
49.2
21
18.2
31
0
0
LINE
8
RACKS
10
49.2
20
18.2
30
0
11
49.2
21
17.0
31
0
0
LINE
8
RACKS
10
50.4
20
17.0
30
0
11
51.0
21
17.0
31
0
0
LINE
8
RACKS
10
51.0
20
17.0
30
0
11
51.0
21
18.2
31
0
0
LINE
8
RACKS
10
51.0
20
18.2
30
0
11
50.4
21
18.2
31
0
0
LINE
8
RACKS
10
50.4
20
18.2
30
0
11
50.4
21
17.0
31
0
0
LINE
8
RACKS
10
51.6
20
17.0
30
0
11
52.2
21
17.0
31
0
0
LINE
8
RACKS
10
52.2
20
17.0
30
0
11
52.2
21
18.2
31
0
0
LINE
8
RACKS
10
52.2
20
18.2
30
0
11
51.6
21
18.2
31
0
0
LINE
8
RACKS
10
51.6
20
18.2
30
0
11
51.6
21
17.0
31
0
0
LINE
8
RACKS
10
52.8
20
17.0
30
0
11
53.4
21
17.0
31
0
0
LINE
8
RACKS
10
53.4
20
17.0
30
0
11
53.4
21
18.2
31
0
0
LINE
8
RACKS
10
53.4
20
18.2
30
0
11
52.8
21
18.2
31
0
0
LINE
8
RACKS
10
52.8
20
18.2
30
0
11
52.8
21
17.0
31
0
0
LINE
8
RACKS
10
42.0
20
20.0
30
0
11
42.6
21
20.0
31
0
0
LINE
8
RACKS
10
42.6
20
20.0
30
0
11
42.6
21
21.2
31
0
0
LINE
8
RACKS
10
42.6
20
21.2
30
0
11
42.0
21
21.2
31
0
0
LINE
8
RACKS
10
42.0
20
21.2
30
0
11
42.0
21
20.0
31
0
0
LINE
8
RACKS
10
43.2
20
20.0
30
0
11
43.800000000000004
21
20.0
31
0
0
LINE
8
RACKS
10
43.800000000000004
20
20.0
30
0
11
43.800000000000004
21
21.2
31
0
0
LINE
8
RACKS
10
43.800000000000004
20
21.2
30
0
11
43.2
21
21.2
31
0
0
LINE
8
RACKS
10
43.2
20
21.2
30
0
11
43.2
21
20.0
31
0
0
LINE
8
RACKS
10
44.4
20
20.0
30
0
11
45.0
21
20.0
31
0
0
LINE
8
RACKS
10
45.0
20
20.0
30
0
11
45.0
21
21.2
31
0
0
LINE
8
RACKS
10
45.0
20
21.2
30
0
11
44.4
21
21.2
31
0
0
LINE
8
RACKS
10
44.4
20
21.2
30
0
11
44.4
21
20.0
31
0
0
LINE
8
RACKS
10
45.6
20
20.0
30
0
11
46.2
21
20.0
31
0
0
LINE
8
RACKS
10
46.2
20
20.0
30
0
11
46.2
21
21.2
31
0
0
LINE
8
RACKS
10
46.2
20
21.2
30
0
11
45.6
21
21.2
31
0
0
LINE
8
RACKS
10
45.6
20
21.2
30
0
11
45.6
21
20.0
31
0
0
LINE
8
RACKS
10
46.8
20
20.0
30
0
11
47.4
21
20.0
31
0
0
LINE
8
RACKS
10
47.4
20
20.0
30
0
11
47.4
21
21.2
31
0
0
LINE
8
RACKS
10
47.4
20
21.2
30
0
11
46.8
21
21.2
31
0
0
LINE
8
RACKS
10
46.8
20
21.2
30
0
11
46.8
21
20.0
31
0
0
LINE
8
RACKS
10
48.0
20
20.0
30
0
11
48.6
21
20.0
31
0
0
LINE
8
RACKS
10
48.6
20
20.0
30
0
11
48.6
21
21.2
31
0
0
LINE
8
RACKS
10
48.6
20
21.2
30
0
11
48.0
21
21.2
31
0
0
LINE
8
RACKS
10
48.0
20
21.2
30
0
11
48.0
21
20.0
31
0
0
LINE
8
RACKS
10
49.2
20
20.0
30
0
11
49.800000000000004
21
20.0
31
0
0
LINE
8
RACKS
10
49.800000000000004
20
20.0
30
0
11
49.800000000000004
21
21.2
31
0
0
LINE
8
RACKS
10
49.800000000000004
20
21.2
30
0
11
49.2
21
21.2
31
0
0
LINE
8
RACKS
10
49.2
20
21.2
30
0
11
49.2
21
20.0
31
0
0
LINE
8
RACKS
10
50.4
20
20.0
30
0
11
51.0
21
20.0
31
0
0
LINE
8
RACKS
10
51.0
20
20.0
30
0
11
51.0
21
21.2
31
0
0
LINE
8
RACKS
10
51.0
20
21.2
30
0
11
50.4
21
21.2
31
0
0
LINE
8
RACKS
10
50.4
20
21.2
30
0
11
50.4
21
20.0
31
0
0
LINE
8
RACKS
10
51.6
20
20.0
30
0
11
52.2
21
20.0
31
0
0
LINE
8
RACKS
10
52.2
20
20.0
30
0
11
52.2
21
21.2
31
0
0
LINE
8
RACKS
10
52.2
20
21.2
30
0
11
51.6
21
21.2
31
0
0
LINE
8
RACKS
10
51.6
20
21.2
30
0
11
51.6
21
20.0
31
0
0
LINE
8
RACKS
10
52.8
20
20.0
30
0
11
53.4
21
20.0
31
0
0
LINE
8
RACKS
10
53.4
20
20.0
30
0
11
53.4
21
21.2
31
0
0
LINE
8
RACKS
10
53.4
20
21.2
30
0
11
52.8
21
21.2
31
0
0
LINE
8
RACKS
10
52.8
20
21.2
30
0
11
52.8
21
20.0
31
0
0
LINE
8
RACKS
10
42.0
20
23.0
30
0
11
42.6
21
23.0
31
0
0
LINE
8
RACKS
10
42.6
20
23.0
30
0
11
42.6
21
24.2
31
0
0
LINE
8
RACKS
10
42.6
20
24.2
30
0
11
42.0
21
24.2
31
0
0
LINE
8
RACKS
10
42.0
20
24.2
30
0
11
42.0
21
23.0
31
0
0
LINE
8
RACKS
10
43.2
20
23.0
30
0
11
43.800000000000004
21
23.0
31
0
0
LINE
8
RACKS
10
43.800000000000004
20
23.0
30
0
11
43.800000000000004
21
24.2
31
0
0
LINE
8
RACKS
10
43.800000000000004
20
24.2
30
0
11
43.2
21
24.2
31
0
0
LINE
8
RACKS
10
43.2
20
24.2
30
0
11
43.2
21
23.0
31
0
0
LINE
8
RACKS
10
44.4
20
23.0
30
0
11
45.0
21
23.0
31
0
0
LINE
8
RACKS
10
45.0
20
23.0
30
0
11
45.0
21
24.2
31
0
0
LINE
8
RACKS
10
45.0
20
24.2
30
0
11
44.4
21
24.2
31
0
0
LINE
8
RACKS
10
44.4
20
24.2
30
0
11
44.4
21
23.0
31
0
0
LINE
8
RACKS
10
45.6
20
23.0
30
0
11
46.2
21
23.0
31
0
0
LINE
8
RACKS
10
46.2
20
23.0
30
0
11
46.2
21
24.2
31
0
0
LINE
8
RACKS
10
46.2
20
24.2
30
0
11
45.6
21
24.2
31
0
0
LINE
8
RACKS
10
45.6
20
24.2
30
0
11
45.6
21
23.0
31
0
0
LINE
8
RACKS
10
46.8
20
23.0
30
0
11
47.4
21
23.0
31
0
0
LINE
8
RACKS
10
47.4
20
23.0
30
0
11
47.4
21
24.2
31
0
0
LINE
8
RACKS
10
47.4
20
24.2
30
0
11
46.8
21
24.2
31
0
0
LINE
8
RACKS
10
46.8
20
24.2
30
0
11
46.8
21
23.0
31
0
0
LINE
8
RACKS
10
48.0
20
23.0
30
0
11
48.6
21
23.0
31
0
0
LINE
8
RACKS
10
48.6
20
23.0
30
0
11
48.6
21
24.2
31
0
0
LINE
8
RACKS
10
48.6
20
24.2
30
0
11
48.0
21
24.2
31
0
0
LINE
8
RACKS
10
48.0
20
24.2
30
0
11
48.0
21
23.0
31
0
0
LINE
8
RACKS
10
49.2
20
23.0
30
0
11
49.800000000000004
21
23.0
31
0
0
LINE
8
RACKS
10
49.800000000000004
20
23.0
30
0
11
49.800000000000004
21
24.2
31
0
0
LINE
8
RACKS
10
49.800000000000004
20
24.2
30
0
11
49.2
21
24.2
31
0
0
LINE
8
RACKS
10
49.2
20
24.2
30
0
11
49.2
21
23.0
31
0
0
LINE
8
RACKS
10
50.4
20
23.0
30
0
11
51.0
21
23.0
31
0
0
LINE
8
RACKS
10
51.0
20
23.0
30
0
11
51.0
21
24.2
31
0
0
LINE
8
RACKS
10
51.0
20
24.2
30
0
11
50.4
21
24.2
31
0
0
LINE
8
RACKS
10
50.4
20
24.2
30
0
11
50.4
21
23.0
31
0
0
LINE
8
RACKS
10
51.6
20
23.0
30
0
11
52.2
21
23.0
31
0
0
LINE
8
RACKS
10
52.2
20
23.0
30
0
11
52.2
21
24.2
31
0
0
LINE
8
RACKS
10
52.2
20
24.2
30
0
11
51.6
21
24.2
31
0
0
LINE
8
RACKS
10
51.6
20
24.2
30
0
11
51.6
21
23.0
31
0
0
LINE
8
RACKS
10
52.8
20
23.0
30
0
11
53.4
21
23.0
31
0
0
LINE
8
RACKS
10
53.4
20
23.0
30
0
11
53.4
21
24.2
31
0
0
LINE
8
RACKS
10
53.4
20
24.2
30
0
11
52.8
21
24.2
31
0
0
LINE
8
RACKS
10
52.8
20
24.2
30
0
11
52.8
21
23.0
31
0
0
LINE
8
RACKS
10
42.0
20
26.0
30
0
11
42.6
21
26.0
31
0
0
LINE
8
RACKS
10
42.6
20
26.0
30
0
11
42.6
21
27.2
31
0
0
LINE
8
RACKS
10
42.6
20
27.2
30
0
11
42.0
21
27.2
31
0
0
LINE
8
RACKS
10
42.0
20
27.2
30
0
11
42.0
21
26.0
31
0
0
LINE
8
RACKS
10
43.2
20
26.0
30
0
11
43.800000000000004
21
26.0
31
0
0
LINE
8
RACKS
10
43.800000000000004
20
26.0
30
0
11
43.800000000000004
21
27.2
31
0
0
LINE
8
RACKS
10
43.800000000000004
20
27.2
30
0
11
43.2
21
27.2
31
0
0
LINE
8
RACKS
10
43.2
20
27.2
30
0
11
43.2
21
26.0
31
0
0
LINE
8
RACKS
10
44.4
20
26.0
30
0
11
45.0
21
26.0
31
0
0
LINE
8
RACKS
10
45.0
20
26.0
30
0
11
45.0
21
27.2
31
0
0
LINE
8
RACKS
10
45.0
20
27.2
30
0
11
44.4
21
27.2
31
0
0
LINE
8
RACKS
10
44.4
20
27.2
30
0
11
44.4
21
26.0
31
0
0
LINE
8
RACKS
10
45.6
20
26.0
30
0
11
46.2
21
26.0
31
0
0
LINE
8
RACKS
10
46.2
20
26.0
30
0
11
46.2
21
27.2
31
0
0
LINE
8
RACKS
10
46.2
20
27.2
30
0
11
45.6
21
27.2
31
0
0
LINE
8
RACKS
10
45.6
20
27.2
30
0
11
45.6
21
26.0
31
0
0
LINE
8
RACKS
10
46.8
20
26.0
30
0
11
47.4
21
26.0
31
0
0
LINE
8
RACKS
10
47.4
20
26.0
30
0
11
47.4
21
27.2
31
0
0
LINE
8
RACKS
10
47.4
20
27.2
30
0
11
46.8
21
27.2
31
0
0
LINE
8
RACKS
10
46.8
20
27.2
30
0
11
46.8
21
26.0
31
0
0
LINE
8
RACKS
10
48.0
20
26.0
30
0
11
48.6
21
26.0
31
0
0
LINE
8
RACKS
10
48.6
20
26.0
30
0
11
48.6
21
27.2
31
0
0
LINE
8
RACKS
10
48.6
20
27.2
30
0
11
48.0
21
27.2
31
0
0
LINE
8
RACKS
10
48.0
20
27.2
30
0
11
48.0
21
26.0
31
0
0
LINE
8
RACKS
10
49.2
20
26.0
30
0
11
49.800000000000004
21
26.0
31
0
0
LINE
8
RACKS
10
49.800000000000004
20
26.0
30
0
11
49.800000000000004
21
27.2
31
0
0
LINE
8
RACKS
10
49.800000000000004
20
27.2
30
0
11
49.2
21
27.2
31
0
0
LINE
8
RACKS
10
49.2
20
27.2
30
0
11
49.2
21
26.0
31
0
0
LINE
8
RACKS
10
50.4
20
26.0
30
0
11
51.0
21
26.0
31
0
0
LINE
8
RACKS
10
51.0
20
26.0
30
0
11
51.0
21
27.2
31
0
0
LINE
8
RACKS
10
51.0
20
27.2
30
0
11
50.4
21
27.2
31
0
0
LINE
8
RACKS
10
50.4
20
27.2
30
0
11
50.4
21
26.0
31
0
0
LINE
8
RACKS
10
51.6
20
26.0
30
0
11
52.2
21
26.0
31
0
0
LINE
8
RACKS
10
52.2
20
26.0
30
0
11
52.2
21
27.2
31
0
0
LINE
8
RACKS
10
52.2
20
27.2
30
0
11
51.6
21
27.2
31
0
0
LINE
8
RACKS
10
51.6
20
27.2
30
0
11
51.6
21
26.0
31
0
0
LINE
8
RACKS
10
52.8
20
26.0
30
0
11
53.4
21
26.0
31
0
0
LINE
8
RACKS
10
53.4
20
26.0
30
0
11
53.4
21
27.2
31
0
0
LINE
8
RACKS
10
53.4
20
27.2
30
0
11
52.8
21
27.2
31
0
0
LINE
8
RACKS
10
52.8
20
27.2
30
0
11
52.8
21
26.0
31
0
0
LINE
8
RACKS
10
14.0
20
45.0
30
0
11
14.6
21
45.0
31
0
0
LINE
8
RACKS
10
14.6
20
45.0
30
0
11
14.6
21
46.2
31
0
0
LINE
8
RACKS
10
14.6
20
46.2
30
0
11
14.0
21
46.2
31
0
0
LINE
8
RACKS
10
14.0
20
46.2
30
0
11
14.0
21
45.0
31
0
0
LINE
8
RACKS
10
15.2
20
45.0
30
0
11
15.799999999999999
21
45.0
31
0
0
LINE
8
RACKS
10
15.799999999999999
20
45.0
30
0
11
15.799999999999999
21
46.2
31
0
0
LINE
8
RACKS
10
15.799999999999999
20
46.2
30
0
11
15.2
21
46.2
31
0
0
LINE
8
RACKS
10
15.2
20
46.2
30
0
11
15.2
21
45.0
31
0
0
LINE
8
RACKS
10
16.4
20
45.0
30
0
11
17.0
21
45.0
31
0
0
LINE
8
RACKS
10
17.0
20
45.0
30
0
11
17.0
21
46.2
31
0
0
LINE
8
RACKS
10
17.0
20
46.2
30
0
11
16.4
21
46.2
31
0
0
LINE
8
RACKS
10
16.4
20
46.2
30
0
11
16.4
21
45.0
31
0
0
LINE
8
RACKS
10
17.6
20
45.0
30
0
11
18.200000000000003
21
45.0
31
0
0
LINE
8
RACKS
10
18.200000000000003
20
45.0
30
0
11
18.200000000000003
21
46.2
31
0
0
LINE
8
RACKS
10
18.200000000000003
20
46.2
30
0
11
17.6
21
46.2
31
0
0
LINE
8
RACKS
10
17.6
20
46.2
30
0
11
17.6
21
45.0
31
0
0
LINE
8
RACKS
10
18.8
20
45.0
30
0
11
19.400000000000002
21
45.0
31
0
0
LINE
8
RACKS
10
19.400000000000002
20
45.0
30
0
11
19.400000000000002
21
46.2
31
0
0
LINE
8
RACKS
10
19.400000000000002
20
46.2
30
0
11
18.8
21
46.2
31
0
0
LINE
8
RACKS
10
18.8
20
46.2
30
0
11
18.8
21
45.0
31
0
0
LINE
8
RACKS
10
20.0
20
45.0
30
0
11
20.6
21
45.0
31
0
0
LINE
8
RACKS
10
20.6
20
45.0
30
0
11
20.6
21
46.2
31
0
0
LINE
8
RACKS
10
20.6
20
46.2
30
0
11
20.0
21
46.2
31
0
0
LINE
8
RACKS
10
20.0
20
46.2
30
0
11
20.0
21
45.0
31
0
0
LINE
8
RACKS
10
21.2
20
45.0
30
0
11
21.8
21
45.0
31
0
0
LINE
8
RACKS
10
21.8
20
45.0
30
0
11
21.8
21
46.2
31
0
0
LINE
8
RACKS
10
21.8
20
46.2
30
0
11
21.2
21
46.2
31
0
0
LINE
8
RACKS
10
21.2
20
46.2
30
0
11
21.2
21
45.0
31
0
0
LINE
8
RACKS
10
22.4
20
45.0
30
0
11
23.0
21
45.0
31
0
0
LINE
8
RACKS
10
23.0
20
45.0
30
0
11
23.0
21
46.2
31
0
0
LINE
8
RACKS
10
23.0
20
46.2
30
0
11
22.4
21
46.2
31
0
0
LINE
8
RACKS
10
22.4
20
46.2
30
0
11
22.4
21
45.0
31
0
0
LINE
8
RACKS
10
23.6
20
45.0
30
0
11
24.200000000000003
21
45.0
31
0
0
LINE
8
RACKS
10
24.200000000000003
20
45.0
30
0
11
24.200000000000003
21
46.2
31
0
0
LINE
8
RACKS
10
24.200000000000003
20
46.2
30
0
11
23.6
21
46.2
31
0
0
LINE
8
RACKS
10
23.6
20
46.2
30
0
11
23.6
21
45.0
31
0
0
LINE
8
RACKS
10
24.799999999999997
20
45.0
30
0
11
25.4
21
45.0
31
0
0
LINE
8
RACKS
10
25.4
20
45.0
30
0
11
25.4
21
46.2
31
0
0
LINE
8
RACKS
10
25.4
20
46.2
30
0
11
24.799999999999997
21
46.2
31
0
0
LINE
8
RACKS
10
24.799999999999997
20
46.2
30
0
11
24.799999999999997
21
45.0
31
0
0
LINE
8
RACKS
10
14.0
20
48.0
30
0
11
14.6
21
48.0
31
0
0
LINE
8
RACKS
10
14.6
20
48.0
30
0
11
14.6
21
49.2
31
0
0
LINE
8
RACKS
10
14.6
20
49.2
30
0
11
14.0
21
49.2
31
0
0
LINE
8
RACKS
10
14.0
20
49.2
30
0
11
14.0
21
48.0
31
0
0
LINE
8
RACKS
10
15.2
20
48.0
30
0
11
15.799999999999999
21
48.0
31
0
0
LINE
8
RACKS
10
15.799999999999999
20
48.0
30
0
11
15.799999999999999
21
49.2
31
0
0
LINE
8
RACKS
10
15.799999999999999
20
49.2
30
0
11
15.2
21
49.2
31
0
0
LINE
8
RACKS
10
15.2
20
49.2
30
0
11
15.2
21
48.0
31
0
0
LINE
8
RACKS
10
16.4
20
48.0
30
0
11
17.0
21
48.0
31
0
0
LINE
8
RACKS
10
17.0
20
48.0
30
0
11
17.0
21
49.2
31
0
0
LINE
8
RACKS
10
17.0
20
49.2
30
0
11
16.4
21
49.2
31
0
0
LINE
8
RACKS
10
16.4
20
49.2
30
0
11
16.4
21
48.0
31
0
0
LINE
8
RACKS
10
17.6
20
48.0
30
0
11
18.200000000000003
21
48.0
31
0
0
LINE
8
RACKS
10
18.200000000000003
20
48.0
30
0
11
18.200000000000003
21
49.2
31
0
0
LINE
8
RACKS
10
18.200000000000003
20
49.2
30
0
11
17.6
21
49.2
31
0
0
LINE
8
RACKS
10
17.6
20
49.2
30
0
11
17.6
21
48.0
31
0
0
LINE
8
RACKS
10
18.8
20
48.0
30
0
11
19.400000000000002
21
48.0
31
0
0
LINE
8
RACKS
10
19.400000000000002
20
48.0
30
0
11
19.400000000000002
21
49.2
31
0
0
LINE
8
RACKS
10
19.400000000000002
20
49.2
30
0
11
18.8
21
49.2
31
0
0
LINE
8
RACKS
10
18.8
20
49.2
30
0
11
18.8
21
48.0
31
0
0
LINE
8
RACKS
10
20.0
20
48.0
30
0
11
20.6
21
48.0
31
0
0
LINE
8
RACKS
10
20.6
20
48.0
30
0
11
20.6
21
49.2
31
0
0
LINE
8
RACKS
10
20.6
20
49.2
30
0
11
20.0
21
49.2
31
0
0
LINE
8
RACKS
10
20.0
20
49.2
30
0
11
20.0
21
48.0
31
0
0
LINE
8
RACKS
10
21.2
20
48.0
30
0
11
21.8
21
48.0
31
0
0
LINE
8
RACKS
10
21.8
20
48.0
30
0
11
21.8
21
49.2
31
0
0
LINE
8
RACKS
10
21.8
20
49.2
30
0
11
21.2
21
49.2
31
0
0
LINE
8
RACKS
10
21.2
20
49.2
30
0
11
21.2
21
48.0
31
0
0
LINE
8
RACKS
10
22.4
20
48.0
30
0
11
23.0
21
48.0
31
0
0
LINE
8
RACKS
10
23.0
20
48.0
30
0
11
23.0
21
49.2
31
0
0
LINE
8
RACKS
10
23.0
20
49.2
30
0
11
22.4
21
49.2
31
0
0
LINE
8
RACKS
10
22.4
20
49.2
30
0
11
22.4
21
48.0
31
0
0
LINE
8
RACKS
10
23.6
20
48.0
30
0
11
24.200000000000003
21
48.0
31
0
0
LINE
8
RACKS
10
24.200000000000003
20
48.0
30
0
11
24.200000000000003
21
49.2
31
0
0
LINE
8
RACKS
10
24.200000000000003
20
49.2
30
0
11
23.6
21
49.2
31
0
0
LINE
8
RACKS
10
23.6
20
49.2
30
0
11
23.6
21
48.0
31
0
0
LINE
8
RACKS
10
24.799999999999997
20
48.0
30
0
11
25.4
21
48.0
31
0
0
LINE
8
RACKS
10
25.4
20
48.0
30
0
11
25.4
21
49.2
31
0
0
LINE
8
RACKS
10
25.4
20
49.2
30
0
11
24.799999999999997
21
49.2
31
0
0
LINE
8
RACKS
10
24.799999999999997
20
49.2
30
0
11
24.799999999999997
21
48.0
31
0
0
LINE
8
RACKS
10
14.0
20
51.0
30
0
11
14.6
21
51.0
31
0
0
LINE
8
RACKS
10
14.6
20
51.0
30
0
11
14.6
21
52.2
31
0
0
LINE
8
RACKS
10
14.6
20
52.2
30
0
11
14.0
21
52.2
31
0
0
LINE
8
RACKS
10
14.0
20
52.2
30
0
11
14.0
21
51.0
31
0
0
LINE
8
RACKS
10
15.2
20
51.0
30
0
11
15.799999999999999
21
51.0
31
0
0
LINE
8
RACKS
10
15.799999999999999
20
51.0
30
0
11
15.799999999999999
21
52.2
31
0
0
LINE
8
RACKS
10
15.799999999999999
20
52.2
30
0
11
15.2
21
52.2
31
0
0
LINE
8
RACKS
10
15.2
20
52.2
30
0
11
15.2
21
51.0
31
0
0
LINE
8
RACKS
10
16.4
20
51.0
30
0
11
17.0
21
51.0
31
0
0
LINE
8
RACKS
10
17.0
20
51.0
30
0
11
17.0
21
52.2
31
0
0
LINE
8
RACKS
10
17.0
20
52.2
30
0
11
16.4
21
52.2
31
0
0
LINE
8
RACKS
10
16.4
20
52.2
30
0
11
16.4
21
51.0
31
0
0
LINE
8
RACKS
10
17.6
20
51.0
30
0
11
18.200000000000003
21
51.0
31
0
0
LINE
8
RACKS
10
18.200000000000003
20
51.0
30
0
11
18.200000000000003
21
52.2
31
0
0
LINE
8
RACKS
10
18.200000000000003
20
52.2
30
0
11
17.6
21
52.2
31
0
0
LINE
8
RACKS
10
17.6
20
52.2
30
0
11
17.6
21
51.0
31
0
0
LINE
8
RACKS
10
18.8
20
51.0
30
0
11
19.400000000000002
21
51.0
31
0
0
LINE
8
RACKS
10
19.400000000000002
20
51.0
30
0
11
19.400000000000002
21
52.2
31
0
0
LINE
8
RACKS
10
19.400000000000002
20
52.2
30
0
11
18.8
21
52.2
31
0
0
LINE
8
RACKS
10
18.8
20
52.2
30
0
11
18.8
21
51.0
31
0
0
LINE
8
RACKS
10
20.0
20
51.0
30
0
11
20.6
21
51.0
31
0
0
LINE
8
RACKS
10
20.6
20
51.0
30
0
11
20.6
21
52.2
31
0
0
LINE
8
RACKS
10
20.6
20
52.2
30
0
11
20.0
21
52.2
31
0
0
LINE
8
RACKS
10
20.0
20
52.2
30
0
11
20.0
21
51.0
31
0
0
LINE
8
RACKS
10
21.2
20
51.0
30
0
11
21.8
21
51.0
31
0
0
LINE
8
RACKS
10
21.8
20
51.0
30
0
11
21.8
21
52.2
31
0
0
LINE
8
RACKS
10
21.8
20
52.2
30
0
11
21.2
21
52.2
31
0
0
LINE
8
RACKS
10
21.2
20
52.2
30
0
11
21.2
21
51.0
31
0
0
LINE
8
RACKS
10
22.4
20
51.0
30
0
11
23.0
21
51.0
31
0
0
LINE
8
RACKS
10
23.0
20
51.0
30
0
11
23.0
21
52.2
31
0
0
LINE
8
RACKS
10
23.0
20
52.2
30
0
11
22.4
21
52.2
31
0
0
LINE
8
RACKS
10
22.4
20
52.2
30
0
11
22.4
21
51.0
31
0
0
LINE
8
RACKS
10
23.6
20
51.0
30
0
11
24.200000000000003
21
51.0
31
0
0
LINE
8
RACKS
10
24.200000000000003
20
51.0
30
0
11
24.200000000000003
21
52.2
31
0
0
LINE
8
RACKS
10
24.200000000000003
20
52.2
30
0
11
23.6
21
52.2
31
0
0
LINE
8
RACKS
10
23.6
20
52.2
30
0
11
23.6
21
51.0
31
0
0
LINE
8
RACKS
10
24.799999999999997
20
51.0
30
0
11
25.4
21
51.0
31
0
0
LINE
8
RACKS
10
25.4
20
51.0
30
0
11
25.4
21
52.2
31
0
0
LINE
8
RACKS
10
25.4
20
52.2
30
0
11
24.799999999999997
21
52.2
31
0
0
LINE
8
RACKS
10
24.799999999999997
20
52.2
30
0
11
24.799999999999997
21
51.0
31
0
0
LINE
8
RACKS
10
14.0
20
54.0
30
0
11
14.6
21
54.0
31
0
0
LINE
8
RACKS
10
14.6
20
54.0
30
0
11
14.6
21
55.2
31
0
0
LINE
8
RACKS
10
14.6
20
55.2
30
0
11
14.0
21
55.2
31
0
0
LINE
8
RACKS
10
14.0
20
55.2
30
0
11
14.0
21
54.0
31
0
0
LINE
8
RACKS
10
15.2
20
54.0
30
0
11
15.799999999999999
21
54.0
31
0
0
LINE
8
RACKS
10
15.799999999999999
20
54.0
30
0
11
15.799999999999999
21
55.2
31
0
0
LINE
8
RACKS
10
15.799999999999999
20
55.2
30
0
11
15.2
21
55.2
31
0
0
LINE
8
RACKS
10
15.2
20
55.2
30
0
11
15.2
21
54.0
31
0
0
LINE
8
RACKS
10
16.4
20
54.0
30
0
11
17.0
21
54.0
31
0
0
LINE
8
RACKS
10
17.0
20
54.0
30
0
11
17.0
21
55.2
31
0
0
LINE
8
RACKS
10
17.0
20
55.2
30
0
11
16.4
21
55.2
31
0
0
LINE
8
RACKS
10
16.4
20
55.2
30
0
11
16.4
21
54.0
31
0
0
LINE
8
RACKS
10
17.6
20
54.0
30
0
11
18.200000000000003
21
54.0
31
0
0
LINE
8
RACKS
10
18.200000000000003
20
54.0
30
0
11
18.200000000000003
21
55.2
31
0
0
LINE
8
RACKS
10
18.200000000000003
20
55.2
30
0
11
17.6
21
55.2
31
0
0
LINE
8
RACKS
10
17.6
20
55.2
30
0
11
17.6
21
54.0
31
0
0
LINE
8
RACKS
10
18.8
20
54.0
30
0
11
19.400000000000002
21
54.0
31
0
0
LINE
8
RACKS
10
19.400000000000002
20
54.0
30
0
11
19.400000000000002
21
55.2
31
0
0
LINE
8
RACKS
10
19.400000000000002
20
55.2
30
0
11
18.8
21
55.2
31
0
0
LINE
8
RACKS
10
18.8
20
55.2
30
0
11
18.8
21
54.0
31
0
0
LINE
8
RACKS
10
20.0
20
54.0
30
0
11
20.6
21
54.0
31
0
0
LINE
8
RACKS
10
20.6
20
54.0
30
0
11
20.6
21
55.2
31
0
0
LINE
8
RACKS
10
20.6
20
55.2
30
0
11
20.0
21
55.2
31
0
0
LINE
8
RACKS
10
20.0
20
55.2
30
0
11
20.0
21
54.0
31
0
0
LINE
8
RACKS
10
21.2
20
54.0
30
0
11
21.8
21
54.0
31
0
0
LINE
8
RACKS
10
21.8
20
54.0
30
0
11
21.8
21
55.2
31
0
0
LINE
8
RACKS
10
21.8
20
55.2
30
0
11
21.2
21
55.2
31
0
0
LINE
8
RACKS
10
21.2
20
55.2
30
0
11
21.2
21
54.0
31
0
0
LINE
8
RACKS
10
22.4
20
54.0
30
0
11
23.0
21
54.0
31
0
0
LINE
8
RACKS
10
23.0
20
54.0
30
0
11
23.0
21
55.2
31
0
0
LINE
8
RACKS
10
23.0
20
55.2
30
0
11
22.4
21
55.2
31
0
0
LINE
8
RACKS
10
22.4
20
55.2
30
0
11
22.4
21
54.0
31
0
0
LINE
8
RACKS
10
23.6
20
54.0
30
0
11
24.200000000000003
21
54.0
31
0
0
LINE
8
RACKS
10
24.200000000000003
20
54.0
30
0
11
24.200000000000003
21
55.2
31
0
0
LINE
8
RACKS
10
24.200000000000003
20
55.2
30
0
11
23.6
21
55.2
31
0
0
LINE
8
RACKS
10
23.6
20
55.2
30
0
11
23.6
21
54.0
31
0
0
LINE
8
RACKS
10
24.799999999999997
20
54.0
30
0
11
25.4
21
54.0
31
0
0
LINE
8
RACKS
10
25.4
20
54.0
30
0
11
25.4
21
55.2
31
0
0
LINE
8
RACKS
10
25.4
20
55.2
30
0
11
24.799999999999997
21
55.2
31
0
0
LINE
8
RACKS
10
24.799999999999997
20
55.2
30
0
11
24.799999999999997
21
54.0
31
0
0
LINE
8
RACKS
10
14.0
20
57.0
30
0
11
14.6
21
57.0
31
0
0
LINE
8
RACKS
10
14.6
20
57.0
30
0
11
14.6
21
58.2
31
0
0
LINE
8
RACKS
10
14.6
20
58.2
30
0
11
14.0
21
58.2
31
0
0
LINE
8
RACKS
10
14.0
20
58.2
30
0
11
14.0
21
57.0
31
0
0
LINE
8
RACKS
10
15.2
20
57.0
30
0
11
15.799999999999999
21
57.0
31
0
0
LINE
8
RACKS
10
15.799999999999999
20
57.0
30
0
11
15.799999999999999
21
58.2
31
0
0
LINE
8
RACKS
10
15.799999999999999
20
58.2
30
0
11
15.2
21
58.2
31
0
0
LINE
8
RACKS
10
15.2
20
58.2
30
0
11
15.2
21
57.0
31
0
0
LINE
8
RACKS
10
16.4
20
57.0
30
0
11
17.0
21
57.0
31
0
0
LINE
8
RACKS
10
17.0
20
57.0
30
0
11
17.0
21
58.2
31
0
0
LINE
8
RACKS
10
17.0
20
58.2
30
0
11
16.4
21
58.2
31
0
0
LINE
8
RACKS
10
16.4
20
58.2
30
0
11
16.4
21
57.0
31
0
0
LINE
8
RACKS
10
17.6
20
57.0
30
0
11
18.200000000000003
21
57.0
31
0
0
LINE
8
RACKS
10
18.200000000000003
20
57.0
30
0
11
18.200000000000003
21
58.2
31
0
0
LINE
8
RACKS
10
18.200000000000003
20
58.2
30
0
11
17.6
21
58.2
31
0
0
LINE
8
RACKS
10
17.6
20
58.2
30
0
11
17.6
21
57.0
31
0
0
LINE
8
RACKS
10
18.8
20
57.0
30
0
11
19.400000000000002
21
57.0
31
0
0
LINE
8
RACKS
10
19.400000000000002
20
57.0
30
0
11
19.400000000000002
21
58.2
31
0
0
LINE
8
RACKS
10
19.400000000000002
20
58.2
30
0
11
18.8
21
58.2
31
0
0
LINE
8
RACKS
10
18.8
20
58.2
30
0
11
18.8
21
57.0
31
0
0
LINE
8
RACKS
10
20.0
20
57.0
30
0
11
20.6
21
57.0
31
0
0
LINE
8
RACKS
10
20.6
20
57.0
30
0
11
20.6
21
58.2
31
0
0
LINE
8
RACKS
10
20.6
20
58.2
30
0
11
20.0
21
58.2
31
0
0
LINE
8
RACKS
10
20.0
20
58.2
30
0
11
20.0
21
57.0
31
0
0
LINE
8
RACKS
10
21.2
20
57.0
30
0
11
21.8
21
57.0
31
0
0
LINE
8
RACKS
10
21.8
20
57.0
30
0
11
21.8
21
58.2
31
0
0
LINE
8
RACKS
10
21.8
20
58.2
30
0
11
21.2
21
58.2
31
0
0
LINE
8
RACKS
10
21.2
20
58.2
30
0
11
21.2
21
57.0
31
0
0
LINE
8
RACKS
10
22.4
20
57.0
30
0
11
23.0
21
57.0
31
0
0
LINE
8
RACKS
10
23.0
20
57.0
30
0
11
23.0
21
58.2
31
0
0
LINE
8
RACKS
10
23.0
20
58.2
30
0
11
22.4
21
58.2
31
0
0
LINE
8
RACKS
10
22.4
20
58.2
30
0
11
22.4
21
57.0
31
0
0
LINE
8
RACKS
10
23.6
20
57.0
30
0
11
24.200000000000003
21
57.0
31
0
0
LINE
8
RACKS
10
24.200000000000003
20
57.0
30
0
11
24.200000000000003
21
58.2
31
0
0
LINE
8
RACKS
10
24.200000000000003
20
58.2
30
0
11
23.6
21
58.2
31
0
0
LINE
8
RACKS
10
23.6
20
58.2
30
0
11
23.6
21
57.0
31
0
0
LINE
8
RACKS
10
24.799999999999997
20
57.0
30
0
11
25.4
21
57.0
31
0
0
LINE
8
RACKS
10
25.4
20
57.0
30
0
11
25.4
21
58.2
31
0
0
LINE
8
RACKS
10
25.4
20
58.2
30
0
11
24.799999999999997
21
58.2
31
0
0
LINE
8
RACKS
10
24.799999999999997
20
58.2
30
0
11
24.799999999999997
21
57.0
31
0
0
LINE
8
RACKS
10
42.0
20
45.0
30
0
11
42.6
21
45.0
31
0
0
LINE
8
RACKS
10
42.6
20
45.0
30
0
11
42.6
21
46.2
31
0
0
LINE
8
RACKS
10
42.6
20
46.2
30
0
11
42.0
21
46.2
31
0
0
LINE
8
RACKS
10
42.0
20
46.2
30
0
11
42.0
21
45.0
31
0
0
LINE
8
RACKS
10
43.2
20
45.0
30
0
11
43.800000000000004
21
45.0
31
0
0
LINE
8
RACKS
10
43.800000000000004
20
45.0
30
0
11
43.800000000000004
21
46.2
31
0
0
LINE
8
RACKS
10
43.800000000000004
20
46.2
30
0
11
43.2
21
46.2
31
0
0
LINE
8
RACKS
10
43.2
20
46.2
30
0
11
43.2
21
45.0
31
0
0
LINE
8
RACKS
10
44.4
20
45.0
30
0
11
45.0
21
45.0
31
0
0
LINE
8
RACKS
10
45.0
20
45.0
30
0
11
45.0
21
46.2
31
0
0
LINE
8
RACKS
10
45.0
20
46.2
30
0
11
44.4
21
46.2
31
0
0
LINE
8
RACKS
10
44.4
20
46.2
30
0
11
44.4
21
45.0
31
0
0
LINE
8
RACKS
10
45.6
20
45.0
30
0
11
46.2
21
45.0
31
0
0
LINE
8
RACKS
10
46.2
20
45.0
30
0
11
46.2
21
46.2
31
0
0
LINE
8
RACKS
10
46.2
20
46.2
30
0
11
45.6
21
46.2
31
0
0
LINE
8
RACKS
10
45.6
20
46.2
30
0
11
45.6
21
45.0
31
0
0
LINE
8
RACKS
10
46.8
20
45.0
30
0
11
47.4
21
45.0
31
0
0
LINE
8
RACKS
10
47.4
20
45.0
30
0
11
47.4
21
46.2
31
0
0
LINE
8
RACKS
10
47.4
20
46.2
30
0
11
46.8
21
46.2
31
0
0
LINE
8
RACKS
10
46.8
20
46.2
30
0
11
46.8
21
45.0
31
0
0
LINE
8
RACKS
10
48.0
20
45.0
30
0
11
48.6
21
45.0
31
0
0
LINE
8
RACKS
10
48.6
20
45.0
30
0
11
48.6
21
46.2
31
0
0
LINE
8
RACKS
10
48.6
20
46.2
30
0
11
48.0
21
46.2
31
0
0
LINE
8
RACKS
10
48.0
20
46.2
30
0
11
48.0
21
45.0
31
0
0
LINE
8
RACKS
10
49.2
20
45.0
30
0
11
49.800000000000004
21
45.0
31
0
0
LINE
8
RACKS
10
49.800000000000004
20
45.0
30
0
11
49.800000000000004
21
46.2
31
0
0
LINE
8
RACKS
10
49.800000000000004
20
46.2
30
0
11
49.2
21
46.2
31
0
0
LINE
8
RACKS
10
49.2
20
46.2
30
0
11
49.2
21
45.0
31
0
0
LINE
8
RACKS
10
50.4
20
45.0
30
0
11
51.0
21
45.0
31
0
0
LINE
8
RACKS
10
51.0
20
45.0
30
0
11
51.0
21
46.2
31
0
0
LINE
8
RACKS
10
51.0
20
46.2
30
0
11
50.4
21
46.2
31
0
0
LINE
8
RACKS
10
50.4
20
46.2
30
0
11
50.4
21
45.0
31
0
0
LINE
8
RACKS
10
51.6
20
45.0
30
0
11
52.2
21
45.0
31
0
0
LINE
8
RACKS
10
52.2
20
45.0
30
0
11
52.2
21
46.2
31
0
0
LINE
8
RACKS
10
52.2
20
46.2
30
0
11
51.6
21
46.2
31
0
0
LINE
8
RACKS
10
51.6
20
46.2
30
0
11
51.6
21
45.0
31
0
0
LINE
8
RACKS
10
52.8
20
45.0
30
0
11
53.4
21
45.0
31
0
0
LINE
8
RACKS
10
53.4
20
45.0
30
0
11
53.4
21
46.2
31
0
0
LINE
8
RACKS
10
53.4
20
46.2
30
0
11
52.8
21
46.2
31
0
0
LINE
8
RACKS
10
52.8
20
46.2
30
0
11
52.8
21
45.0
31
0
0
LINE
8
RACKS
10
42.0
20
48.0
30
0
11
42.6
21
48.0
31
0
0
LINE
8
RACKS
10
42.6
20
48.0
30
0
11
42.6
21
49.2
31
0
0
LINE
8
RACKS
10
42.6
20
49.2
30
0
11
42.0
21
49.2
31
0
0
LINE
8
RACKS
10
42.0
20
49.2
30
0
11
42.0
21
48.0
31
0
0
LINE
8
RACKS
10
43.2
20
48.0
30
0
11
43.800000000000004
21
48.0
31
0
0
LINE
8
RACKS
10
43.800000000000004
20
48.0
30
0
11
43.800000000000004
21
49.2
31
0
0
LINE
8
RACKS
10
43.800000000000004
20
49.2
30
0
11
43.2
21
49.2
31
0
0
LINE
8
RACKS
10
43.2
20
49.2
30
0
11
43.2
21
48.0
31
0
0
LINE
8
RACKS
10
44.4
20
48.0
30
0
11
45.0
21
48.0
31
0
0
LINE
8
RACKS
10
45.0
20
48.0
30
0
11
45.0
21
49.2
31
0
0
LINE
8
RACKS
10
45.0
20
49.2
30
0
11
44.4
21
49.2
31
0
0
LINE
8
RACKS
10
44.4
20
49.2
30
0
11
44.4
21
48.0
31
0
0
LINE
8
RACKS
10
45.6
20
48.0
30
0
11
46.2
21
48.0
31
0
0
LINE
8
RACKS
10
46.2
20
48.0
30
0
11
46.2
21
49.2
31
0
0
LINE
8
RACKS
10
46.2
20
49.2
30
0
11
45.6
21
49.2
31
0
0
LINE
8
RACKS
10
45.6
20
49.2
30
0
11
45.6
21
48.0
31
0
0
LINE
8
RACKS
10
46.8
20
48.0
30
0
11
47.4
21
48.0
31
0
0
LINE
8
RACKS
10
47.4
20
48.0
30
0
11
47.4
21
49.2
31
0
0
LINE
8
RACKS
10
47.4
20
49.2
30
0
11
46.8
21
49.2
31
0
0
LINE
8
RACKS
10
46.8
20
49.2
30
0
11
46.8
21
48.0
31
0
0
LINE
8
RACKS
10
48.0
20
48.0
30
0
11
48.6
21
48.0
31
0
0
LINE
8
RACKS
10
48.6
20
48.0
30
0
11
48.6
21
49.2
31
0
0
LINE
8
RACKS
10
48.6
20
49.2
30
0
11
48.0
21
49.2
31
0
0
LINE
8
RACKS
10
48.0
20
49.2
30
0
11
48.0
21
48.0
31
0
0
LINE
8
RACKS
10
49.2
20
48.0
30
0
11
49.800000000000004
21
48.0
31
0
0
LINE
8
RACKS
10
49.800000000000004
20
48.0
30
0
11
49.800000000000004
21
49.2
31
0
0
LINE
8
RACKS
10
49.800000000000004
20
49.2
30
0
11
49.2
21
49.2
31
0
0
LINE
8
RACKS
10
49.2
20
49.2
30
0
11
49.2
21
48.0
31
0
0
LINE
8
RACKS
10
50.4
20
48.0
30
0
11
51.0
21
48.0
31
0
0
LINE
8
RACKS
10
51.0
20
48.0
30
0
11
51.0
21
49.2
31
0
0
LINE
8
RACKS
10
51.0
20
49.2
30
0
11
50.4
21
49.2
31
0
0
LINE
8
RACKS
10
50.4
20
49.2
30
0
11
50.4
21
48.0
31
0
0
LINE
8
RACKS
10
51.6
20
48.0
30
0
11
52.2
21
48.0
31
0
0
LINE
8
RACKS
10
52.2
20
48.0
30
0
11
52.2
21
49.2
31
0
0
LINE
8
RACKS
10
52.2
20
49.2
30
0
11
51.6
21
49.2
31
0
0
LINE
8
RACKS
10
51.6
20
49.2
30
0
11
51.6
21
48.0
31
0
0
LINE
8
RACKS
10
52.8
20
48.0
30
0
11
53.4
21
48.0
31
0
0
LINE
8
RACKS
10
53.4
20
48.0
30
0
11
53.4
21
49.2
31
0
0
LINE
8
RACKS
10
53.4
20
49.2
30
0
11
52.8
21
49.2
31
0
0
LINE
8
RACKS
10
52.8
20
49.2
30
0
11
52.8
21
48.0
31
0
0
LINE
8
RACKS
10
42.0
20
51.0
30
0
11
42.6
21
51.0
31
0
0
LINE
8
RACKS
10
42.6
20
51.0
30
0
11
42.6
21
52.2
31
0
0
LINE
8
RACKS
10
42.6
20
52.2
30
0
11
42.0
21
52.2
31
0
0
LINE
8
RACKS
10
42.0
20
52.2
30
0
11
42.0
21
51.0
31
0
0
LINE
8
RACKS
10
43.2
20
51.0
30
0
11
43.800000000000004
21
51.0
31
0
0
LINE
8
RACKS
10
43.800000000000004
20
51.0
30
0
11
43.800000000000004
21
52.2
31
0
0
LINE
8
RACKS
10
43.800000000000004
20
52.2
30
0
11
43.2
21
52.2
31
0
0
LINE
8
RACKS
10
43.2
20
52.2
30
0
11
43.2
21
51.0
31
0
0
LINE
8
RACKS
10
44.4
20
51.0
30
0
11
45.0
21
51.0
31
0
0
LINE
8
RACKS
10
45.0
20
51.0
30
0
11
45.0
21
52.2
31
0
0
LINE
8
RACKS
10
45.0
20
52.2
30
0
11
44.4
21
52.2
31
0
0
LINE
8
RACKS
10
44.4
20
52.2
30
0
11
44.4
21
51.0
31
0
0
LINE
8
RACKS
10
45.6
20
51.0
30
0
11
46.2
21
51.0
31
0
0
LINE
8
RACKS
10
46.2
20
51.0
30
0
11
46.2
21
52.2
31
0
0
LINE
8
RACKS
10
46.2
20
52.2
30
0
11
45.6
21
52.2
31
0
0
LINE
8
RACKS
10
45.6
20
52.2
30
0
11
45.6
21
51.0
31
0
0
LINE
8
RACKS
10
46.8
20
51.0
30
0
11
47.4
21
51.0
31
0
0
LINE
8
RACKS
10
47.4
20
51.0
30
0
11
47.4
21
52.2
31
0
0
LINE
8
RACKS
10
47.4
20
52.2
30
0
11
46.8
21
52.2
31
0
0
LINE
8
RACKS
10
46.8
20
52.2
30
0
11
46.8
21
51.0
31
0
0
LINE
8
RACKS
10
48.0
20
51.0
30
0
11
48.6
21
51.0
31
0
0
LINE
8
RACKS
10
48.6
20
51.0
30
0
11
48.6
21
52.2
31
0
0
LINE
8
RACKS
10
48.6
20
52.2
30
0
11
48.0
21
52.2
31
0
0
LINE
8
RACKS
10
48.0
20
52.2
30
0
11
48.0
21
51.0
31
0
0
LINE
8
RACKS
10
49.2
20
51.0
30
0
11
49.800000000000004
21
51.0
31
0
0
LINE
8
RACKS
10
49.800000000000004
20
51.0
30
0
11
49.800000000000004
21
52.2
31
0
0
LINE
8
RACKS
10
49.800000000000004
20
52.2
30
0
11
49.2
21
52.2
31
0
0
LINE
8
RACKS
10
49.2
20
52.2
30
0
11
49.2
21
51.0
31
0
0
LINE
8
RACKS
10
50.4
20
51.0
30
0
11
51.0
21
51.0
31
0
0
LINE
8
RACKS
10
51.0
20
51.0
30
0
11
51.0
21
52.2
31
0
0
LINE
8
RACKS
10
51.0
20
52.2
30
0
11
50.4
21
52.2
31
0
0
LINE
8
RACKS
10
50.4
20
52.2
30
0
11
50.4
21
51.0
31
0
0
LINE
8
RACKS
10
51.6
20
51.0
30
0
11
52.2
21
51.0
31
0
0
LINE
8
RACKS
10
52.2
20
51.0
30
0
11
52.2
21
52.2
31
0
0
LINE
8
RACKS
10
52.2
20
52.2
30
0
11
51.6
21
52.2
31
0
0
LINE
8
RACKS
10
51.6
20
52.2
30
0
11
51.6
21
51.0
31
0
0
LINE
8
RACKS
10
52.8
20
51.0
30
0
11
53.4
21
51.0
31
0
0
LINE
8
RACKS
10
53.4
20
51.0
30
0
11
53.4
21
52.2
31
0
0
LINE
8
RACKS
10
53.4
20
52.2
30
0
11
52.8
21
52.2
31
0
0
LINE
8
RACKS
10
52.8
20
52.2
30
0
11
52.8
21
51.0
31
0
0
LINE
8
RACKS
10
42.0
20
54.0
30
0
11
42.6
21
54.0
31
0
0
LINE
8
RACKS
10
42.6
20
54.0
30
0
11
42.6
21
55.2
31
0
0
LINE
8
RACKS
10
42.6
20
55.2
30
0
11
42.0
21
55.2
31
0
0
LINE
8
RACKS
10
42.0
20
55.2
30
0
11
42.0
21
54.0
31
0
0
LINE
8
RACKS
10
43.2
20
54.0
30
0
11
43.800000000000004
21
54.0
31
0
0
LINE
8
RACKS
10
43.800000000000004
20
54.0
30
0
11
43.800000000000004
21
55.2
31
0
0
LINE
8
RACKS
10
43.800000000000004
20
55.2
30
0
11
43.2
21
55.2
31
0
0
LINE
8
RACKS
10
43.2
20
55.2
30
0
11
43.2
21
54.0
31
0
0
LINE
8
RACKS
10
44.4
20
54.0
30
0
11
45.0
21
54.0
31
0
0
LINE
8
RACKS
10
45.0
20
54.0
30
0
11
45.0
21
55.2
31
0
0
LINE
8
RACKS
10
45.0
20
55.2
30
0
11
44.4
21
55.2
31
0
0
LINE
8
RACKS
10
44.4
20
55.2
30
0
11
44.4
21
54.0
31
0
0
LINE
8
RACKS
10
45.6
20
54.0
30
0
11
46.2
21
54.0
31
0
0
LINE
8
RACKS
10
46.2
20
54.0
30
0
11
46.2
21
55.2
31
0
0
LINE
8
RACKS
10
46.2
20
55.2
30
0
11
45.6
21
55.2
31
0
0
LINE
8
RACKS
10
45.6
20
55.2
30
0
11
45.6
21
54.0
31
0
0
LINE
8
RACKS
10
46.8
20
54.0
30
0
11
47.4
21
54.0
31
0
0
LINE
8
RACKS
10
47.4
20
54.0
30
0
11
47.4
21
55.2
31
0
0
LINE
8
RACKS
10
47.4
20
55.2
30
0
11
46.8
21
55.2
31
0
0
LINE
8
RACKS
10
46.8
20
55.2
30
0
11
46.8
21
54.0
31
0
0
LINE
8
RACKS
10
48.0
20
54.0
30
0
11
48.6
21
54.0
31
0
0
LINE
8
RACKS
10
48.6
20
54.0
30
0
11
48.6
21
55.2
31
0
0
LINE
8
RACKS
10
48.6
20
55.2
30
0
11
48.0
21
55.2
31
0
0
LINE
8
RACKS
10
48.0
20
55.2
30
0
11
48.0
21
54.0
31
0
0
LINE
8
RACKS
10
49.2
20
54.0
30
0
11
49.800000000000004
21
54.0
31
0
0
LINE
8
RACKS
10
49.800000000000004
20
54.0
30
0
11
49.800000000000004
21
55.2
31
0
0
LINE
8
RACKS
10
49.800000000000004
20
55.2
30
0
11
49.2
21
55.2
31
0
0
LINE
8
RACKS
10
49.2
20
55.2
30
0
11
49.2
21
54.0
31
0
0
LINE
8
RACKS
10
50.4
20
54.0
30
0
11
51.0
21
54.0
31
0
0
LINE
8
RACKS
10
51.0
20
54.0
30
0
11
51.0
21
55.2
31
0
0
LINE
8
RACKS
10
51.0
20
55.2
30
0
11
50.4
21
55.2
31
0
0
LINE
8
RACKS
10
50.4
20
55.2
30
0
11
50.4
21
54.0
31
0
0
LINE
8
RACKS
10
51.6
20
54.0
30
0
11
52.2
21
54.0
31
0
0
LINE
8
RACKS
10
52.2
20
54.0
30
0
11
52.2
21
55.2
31
0
0
LINE
8
RACKS
10
52.2
20
55.2
30
0
11
51.6
21
55.2
31
0
0
LINE
8
RACKS
10
51.6
20
55.2
30
0
11
51.6
21
54.0
31
0
0
LINE
8
RACKS
10
52.8
20
54.0
30
0
11
53.4
21
54.0
31
0
0
LINE
8
RACKS
10
53.4
20
54.0
30
0
11
53.4
21
55.2
31
0
0
LINE
8
RACKS
10
53.4
20
55.2
30
0
11
52.8
21
55.2
31
0
0
LINE
8
RACKS
10
52.8
20
55.2
30
0
11
52.8
21
54.0
31
0
0
LINE
8
RACKS
10
42.0
20
57.0
30
0
11
42.6
21
57.0
31
0
0
LINE
8
RACKS
10
42.6
20
57.0
30
0
11
42.6
21
58.2
31
0
0
LINE
8
RACKS
10
42.6
20
58.2
30
0
11
42.0
21
58.2
31
0
0
LINE
8
RACKS
10
42.0
20
58.2
30
0
11
42.0
21
57.0
31
0
0
LINE
8
RACKS
10
43.2
20
57.0
30
0
11
43.800000000000004
21
57.0
31
0
0
LINE
8
RACKS
10
43.800000000000004
20
57.0
30
0
11
43.800000000000004
21
58.2
31
0
0
LINE
8
RACKS
10
43.800000000000004
20
58.2
30
0
11
43.2
21
58.2
31
0
0
LINE
8
RACKS
10
43.2
20
58.2
30
0
11
43.2
21
57.0
31
0
0
LINE
8
RACKS
10
44.4
20
57.0
30
0
11
45.0
21
57.0
31
0
0
LINE
8
RACKS
10
45.0
20
57.0
30
0
11
45.0
21
58.2
31
0
0
LINE
8
RACKS
10
45.0
20
58.2
30
0
11
44.4
21
58.2
31
0
0
LINE
8
RACKS
10
44.4
20
58.2
30
0
11
44.4
21
57.0
31
0
0
LINE
8
RACKS
10
45.6
20
57.0
30
0
11
46.2
21
57.0
31
0
0
LINE
8
RACKS
10
46.2
20
57.0
30
0
11
46.2
21
58.2
31
0
0
LINE
8
RACKS
10
46.2
20
58.2
30
0
11
45.6
21
58.2
31
0
0
LINE
8
RACKS
10
45.6
20
58.2
30
0
11
45.6
21
57.0
31
0
0
LINE
8
RACKS
10
46.8
20
57.0
30
0
11
47.4
21
57.0
31
0
0
LINE
8
RACKS
10
47.4
20
57.0
30
0
11
47.4
21
58.2
31
0
0
LINE
8
RACKS
10
47.4
20
58.2
30
0
11
46.8
21
58.2
31
0
0
LINE
8
RACKS
10
46.8
20
58.2
30
0
11
46.8
21
57.0
31
0
0
LINE
8
RACKS
10
48.0
20
57.0
30
0
11
48.6
21
57.0
31
0
0
LINE
8
RACKS
10
48.6
20
57.0
30
0
11
48.6
21
58.2
31
0
0
LINE
8
RACKS
10
48.6
20
58.2
30
0
11
48.0
21
58.2
31
0
0
LINE
8
RACKS
10
48.0
20
58.2
30
0
11
48.0
21
57.0
31
0
0
LINE
8
RACKS
10
49.2
20
57.0
30
0
11
49.800000000000004
21
57.0
31
0
0
LINE
8
RACKS
10
49.800000000000004
20
57.0
30
0
11
49.800000000000004
21
58.2
31
0
0
LINE
8
RACKS
10
49.800000000000004
20
58.2
30
0
11
49.2
21
58.2
31
0
0
LINE
8
RACKS
10
49.2
20
58.2
30
0
11
49.2
21
57.0
31
0
0
LINE
8
RACKS
10
50.4
20
57.0
30
0
11
51.0
21
57.0
31
0
0
LINE
8
RACKS
10
51.0
20
57.0
30
0
11
51.0
21
58.2
31
0
0
LINE
8
RACKS
10
51.0
20
58.2
30
0
11
50.4
21
58.2
31
0
0
LINE
8
RACKS
10
50.4
20
58.2
30
0
11
50.4
21
57.0
31
0
0
LINE
8
RACKS
10
51.6
20
57.0
30
0
11
52.2
21
57.0
31
0
0
LINE
8
RACKS
10
52.2
20
57.0
30
0
11
52.2
21
58.2
31
0
0
LINE
8
RACKS
10
52.2
20
58.2
30
0
11
51.6
21
58.2
31
0
0
LINE
8
RACKS
10
51.6
20
58.2
30
0
11
51.6
21
57.0
31
0
0
LINE
8
RACKS
10
52.8
20
57.0
30
0
11
53.4
21
57.0
31
0
0
LINE
8
RACKS
10
53.4
20
57.0
30
0
11
53.4
21
58.2
31
0
0
LINE
8
RACKS
10
53.4
20
58.2
30
0
11
52.8
21
58.2
31
0
0
LINE
8
RACKS
10
52.8
20
58.2
30
0
11
52.8
21
57.0
31
0
0
ENDSEC
0
EOF
